<svg version="1.1" id="Layer_1" xmlns="http://www.w3.org/2000/svg" xmlns:xlink="http://www.w3.org/1999/xlink" x="0px" y="0px"
	 width="100%" viewBox="0 0 512 512" enable-background="new 0 0 512 512" xml:space="preserve">
<path fill="#567B6C" opacity="1.000000" stroke="none" 
	d="
M1.000004,476.000000 
	C1.000000,330.309265 1.000000,184.618515 1.367518,38.598228 
	C2.162437,37.617744 2.754559,37.021820 2.993066,36.307777 
	C8.464466,19.927473 19.481209,9.037382 35.605175,3.109493 
	C36.536133,2.767231 37.207710,1.719444 38.000000,1.000000 
	C183.690750,1.000000 329.381500,1.000000 475.401764,1.367532 
	C476.382202,2.162526 476.978088,2.754827 477.692139,2.993260 
	C494.073273,8.463629 504.961945,19.481789 510.890533,35.604988 
	C511.232880,36.535999 512.280579,37.207645 513.000000,38.000000 
	C513.000000,183.690750 513.000000,329.381500 512.632446,475.401733 
	C511.837524,476.382233 511.245422,476.978149 511.006958,477.692200 
	C505.535889,494.072693 494.518707,504.962280 478.395142,510.890533 
	C477.464111,511.232880 476.792389,512.280579 476.000000,513.000000 
	C330.309265,513.000000 184.618515,513.000000 38.598206,512.632446 
	C37.617699,511.837524 37.021770,511.245361 36.307739,511.006866 
	C19.926647,505.536377 9.037936,494.518341 3.109617,478.394897 
	C2.767304,477.463898 1.719490,476.792297 1.000004,476.000000 
M184.284714,114.140541 
	C182.968185,113.940323 181.654037,113.722610 180.334763,113.542511 
	C160.454697,110.828484 140.513275,109.142349 120.707954,113.609032 
	C82.274155,122.276985 55.612568,146.060074 39.958656,181.228485 
	C18.796219,228.772461 18.705805,277.871704 36.881401,326.201080 
	C51.163002,364.176208 78.765877,389.277496 118.647697,399.572784 
	C140.123489,405.116669 161.920319,404.357513 183.678207,401.549316 
	C206.105194,398.654755 226.296310,390.153473 244.374512,376.555786 
	C247.258499,374.386597 248.538483,372.008972 248.519531,368.214294 
	C248.353867,335.056610 248.423782,301.897766 248.423798,268.739258 
	C248.423798,266.936432 248.423798,265.133636 248.423798,263.081970 
	C217.312485,263.081970 186.711838,263.081970 155.879639,263.081970 
	C155.879639,272.429474 155.879639,281.616669 155.879639,291.070129 
	C174.039169,291.745361 191.796097,292.405670 209.993210,293.082306 
	C209.993210,294.954620 209.993210,296.411255 209.993210,297.867889 
	C209.993210,317.029846 209.883530,336.192993 210.090698,355.352692 
	C210.129608,358.952545 208.871048,360.606232 205.739075,362.009094 
	C188.357239,369.794952 170.104538,372.393860 151.210968,372.087036 
	C115.799622,371.511963 90.125084,355.191589 75.941521,323.113953 
	C59.174809,285.194183 58.973522,245.730652 70.763969,206.405472 
	C77.613426,183.560165 90.829086,164.457397 112.098419,152.649002 
	C139.870026,137.230652 168.548019,140.970917 197.149612,150.776001 
	C203.223114,152.858093 207.193756,156.197479 206.502457,163.311798 
	C206.312912,165.262589 206.830475,167.283493 207.035507,169.270996 
	C207.969131,178.320602 208.906982,187.369781 209.840286,196.389816 
	C220.608383,196.389816 230.707306,196.389816 241.367386,196.389816 
	C241.367386,194.288086 241.367386,192.494370 241.367371,190.700638 
	C241.367325,175.204453 241.207932,159.705505 241.475266,144.213928 
	C241.545212,140.160233 240.056427,137.882553 236.884476,135.719650 
	C221.106766,124.961037 203.777039,118.063286 184.284714,114.140541 
M422.880615,284.550201 
	C425.764893,286.207947 428.733429,287.736023 431.519196,289.545410 
	C445.068146,298.345734 451.513092,310.896606 451.255371,327.024719 
	C450.926849,347.583862 437.888641,363.925934 415.654114,369.639862 
	C386.731415,377.072449 359.191925,372.384430 333.276398,357.857819 
	C331.829163,357.046509 330.589386,354.941437 330.254669,353.241333 
	C329.227448,348.023834 328.719940,342.705627 327.951630,337.435181 
	C326.714905,328.951263 325.431152,320.474213 324.195068,312.180725 
	C313.882446,312.180725 304.302551,312.180725 294.260223,312.180725 
	C294.260223,313.991791 294.260223,315.456604 294.260223,316.921417 
	C294.260193,333.916473 294.364471,350.912720 294.173279,367.905640 
	C294.134399,371.360199 295.368103,373.308533 298.109009,375.182373 
	C320.979462,390.817566 346.127838,400.267426 373.712769,402.784393 
	C397.024536,404.911469 419.964447,403.287811 441.860901,394.025330 
	C474.116699,380.380798 492.037262,352.510223 489.681793,320.083344 
	C487.746674,293.442902 473.883423,274.420868 452.082062,260.383850 
	C434.782715,249.245529 415.492645,243.085449 395.772522,237.954788 
	C380.944336,234.096863 366.237213,229.787018 353.005127,221.722733 
	C344.526367,216.555344 337.906219,209.780167 334.925903,199.956482 
	C329.078003,180.680862 337.269867,159.179489 355.496307,150.113220 
	C383.231415,136.317154 410.595062,139.795303 437.186584,154.237579 
	C441.461731,156.559479 443.545074,159.714081 444.146942,164.747589 
	C445.502838,176.087509 447.613770,187.337143 449.423096,198.658844 
	C459.508331,198.658844 469.095581,198.658844 479.221527,198.658844 
	C479.221527,196.614426 479.221497,194.823822 479.221497,193.033218 
	C479.221527,178.204178 478.961670,163.368118 479.363007,148.549942 
	C479.502930,143.384079 477.658051,140.353912 473.661438,137.484528 
	C447.395355,118.626541 418.021240,110.318413 385.885284,111.012466 
	C364.283478,111.479012 344.102692,116.480743 326.081482,128.977570 
	C286.136322,156.677597 284.318024,214.390015 320.622009,243.431274 
	C336.285034,255.960892 354.299774,263.314941 373.226074,269.017029 
	C389.597656,273.949432 405.899261,279.114166 422.880615,284.550201 
z"/>
<path fill="#000000" opacity="1.000000" stroke="none" 
	d="
M37.531342,1.000000 
	C37.207710,1.719444 36.536133,2.767231 35.605175,3.109493 
	C19.481209,9.037382 8.464466,19.927473 2.993066,36.307777 
	C2.754559,37.021820 2.162437,37.617744 1.367518,38.134346 
	C1.000000,25.740049 1.000000,13.480098 1.000000,1.000000 
	C13.020000,1.000000 25.041342,1.000000 37.531342,1.000000 
z"/>
<path fill="#000000" opacity="1.000000" stroke="none" 
	d="
M513.000000,37.531342 
	C512.280579,37.207645 511.232880,36.535999 510.890533,35.604988 
	C504.961945,19.481789 494.073273,8.463629 477.692139,2.993260 
	C476.978088,2.754827 476.382202,2.162526 475.865662,1.367532 
	C488.259949,1.000000 500.519897,1.000000 513.000000,1.000000 
	C513.000000,13.020000 513.000000,25.041342 513.000000,37.531342 
z"/>
<path fill="#000000" opacity="1.000000" stroke="none" 
	d="
M1.000004,476.468658 
	C1.719490,476.792297 2.767304,477.463898 3.109617,478.394897 
	C9.037936,494.518341 19.926647,505.536377 36.307739,511.006866 
	C37.021770,511.245361 37.617699,511.837524 38.134323,512.632446 
	C25.740049,513.000000 13.480098,513.000000 1.000000,513.000000 
	C1.000000,500.980011 1.000000,488.958649 1.000004,476.468658 
z"/>
<path fill="#000000" opacity="1.000000" stroke="none" 
	d="
M476.468628,513.000000 
	C476.792389,512.280579 477.464111,511.232880 478.395142,510.890533 
	C494.518707,504.962280 505.535889,494.072693 511.006958,477.692200 
	C511.245422,476.978149 511.837524,476.382233 512.632446,475.865631 
	C513.000000,488.259949 513.000000,500.519897 513.000000,513.000000 
	C500.980011,513.000000 488.958649,513.000000 476.468628,513.000000 
z"/>
<path fill="#FEFEFE" opacity="1.000000" stroke="none" 
	d="
M184.703979,114.227524 
	C203.777039,118.063286 221.106766,124.961037 236.884476,135.719650 
	C240.056427,137.882553 241.545212,140.160233 241.475266,144.213928 
	C241.207932,159.705505 241.367325,175.204453 241.367371,190.700638 
	C241.367386,192.494370 241.367386,194.288086 241.367386,196.389816 
	C230.707306,196.389816 220.608383,196.389816 209.840286,196.389816 
	C208.906982,187.369781 207.969131,178.320602 207.035507,169.270996 
	C206.830475,167.283493 206.312912,165.262589 206.502457,163.311798 
	C207.193756,156.197479 203.223114,152.858093 197.149612,150.776001 
	C168.548019,140.970917 139.870026,137.230652 112.098419,152.649002 
	C90.829086,164.457397 77.613426,183.560165 70.763969,206.405472 
	C58.973522,245.730652 59.174809,285.194183 75.941521,323.113953 
	C90.125084,355.191589 115.799622,371.511963 151.210968,372.087036 
	C170.104538,372.393860 188.357239,369.794952 205.739075,362.009094 
	C208.871048,360.606232 210.129608,358.952545 210.090698,355.352692 
	C209.883530,336.192993 209.993210,317.029846 209.993210,297.867889 
	C209.993210,296.411255 209.993210,294.954620 209.993210,293.082306 
	C191.796097,292.405670 174.039169,291.745361 155.879639,291.070129 
	C155.879639,281.616669 155.879639,272.429474 155.879639,263.081970 
	C186.711838,263.081970 217.312485,263.081970 248.423798,263.081970 
	C248.423798,265.133636 248.423798,266.936432 248.423798,268.739258 
	C248.423782,301.897766 248.353867,335.056610 248.519531,368.214294 
	C248.538483,372.008972 247.258499,374.386597 244.374512,376.555786 
	C226.296310,390.153473 206.105194,398.654755 183.678207,401.549316 
	C161.920319,404.357513 140.123489,405.116669 118.647697,399.572784 
	C78.765877,389.277496 51.163002,364.176208 36.881401,326.201080 
	C18.705805,277.871704 18.796219,228.772461 39.958656,181.228485 
	C55.612568,146.060074 82.274155,122.276985 120.707954,113.609032 
	C140.513275,109.142349 160.454697,110.828484 180.334763,113.542511 
	C181.654037,113.722610 182.968185,113.940323 184.703979,114.227524 
z"/>
<path fill="#FEFEFE" opacity="1.000000" stroke="none" 
	d="
M422.556213,284.363220 
	C405.899261,279.114166 389.597656,273.949432 373.226074,269.017029 
	C354.299774,263.314941 336.285034,255.960892 320.622009,243.431274 
	C284.318024,214.390015 286.136322,156.677597 326.081482,128.977570 
	C344.102692,116.480743 364.283478,111.479012 385.885284,111.012466 
	C418.021240,110.318413 447.395355,118.626541 473.661438,137.484528 
	C477.658051,140.353912 479.502930,143.384079 479.363007,148.549942 
	C478.961670,163.368118 479.221527,178.204178 479.221497,193.033218 
	C479.221497,194.823822 479.221527,196.614426 479.221527,198.658844 
	C469.095581,198.658844 459.508331,198.658844 449.423096,198.658844 
	C447.613770,187.337143 445.502838,176.087509 444.146942,164.747589 
	C443.545074,159.714081 441.461731,156.559479 437.186584,154.237579 
	C410.595062,139.795303 383.231415,136.317154 355.496307,150.113220 
	C337.269867,159.179489 329.078003,180.680862 334.925903,199.956482 
	C337.906219,209.780167 344.526367,216.555344 353.005127,221.722733 
	C366.237213,229.787018 380.944336,234.096863 395.772522,237.954788 
	C415.492645,243.085449 434.782715,249.245529 452.082062,260.383850 
	C473.883423,274.420868 487.746674,293.442902 489.681793,320.083344 
	C492.037262,352.510223 474.116699,380.380798 441.860901,394.025330 
	C419.964447,403.287811 397.024536,404.911469 373.712769,402.784393 
	C346.127838,400.267426 320.979462,390.817566 298.109009,375.182373 
	C295.368103,373.308533 294.134399,371.360199 294.173279,367.905640 
	C294.364471,350.912720 294.260193,333.916473 294.260223,316.921417 
	C294.260223,315.456604 294.260223,313.991791 294.260223,312.180725 
	C304.302551,312.180725 313.882446,312.180725 324.195068,312.180725 
	C325.431152,320.474213 326.714905,328.951263 327.951630,337.435181 
	C328.719940,342.705627 329.227448,348.023834 330.254669,353.241333 
	C330.589386,354.941437 331.829163,357.046509 333.276398,357.857819 
	C359.191925,372.384430 386.731415,377.072449 415.654114,369.639862 
	C437.888641,363.925934 450.926849,347.583862 451.255371,327.024719 
	C451.513092,310.896606 445.068146,298.345734 431.519196,289.545410 
	C428.733429,287.736023 425.764893,286.207947 422.556213,284.363220 
z"/>
</svg>